<?xml version="1.0" standalone="no"?>
<!DOCTYPE svg PUBLIC "-//W3C//DTD SVG 20010904//EN"
 "http://www.w3.org/TR/2001/REC-SVG-20010904/DTD/svg10.dtd">
<svg version="1.0" xmlns="http://www.w3.org/2000/svg"
 width="1080.000000pt" height="1080.000000pt" viewBox="0 0 1080.000000 1080.000000"
 preserveAspectRatio="xMidYMid meet">

<g transform="translate(0.000000,1080.000000) scale(0.100000,-0.100000)"
fill="#000000" stroke="none">
<path d="M1590 5395 l0 -395 40 0 c39 0 40 1 40 35 0 19 3 35 6 35 3 0 22 -13
42 -29 79 -61 184 -67 269 -15 36 22 55 44 78 89 28 54 30 66 30 164 0 90 -4
114 -24 159 -13 28 -39 65 -57 82 -82 71 -231 65 -303 -14 -14 -14 -28 -26
-33 -26 -4 0 -8 70 -8 155 l0 155 -40 0 -40 0 0 -395z m345 77 c55 -33 70 -74
70 -192 0 -88 -3 -111 -20 -140 -29 -48 -78 -74 -140 -74 -66 0 -113 27 -145
85 -20 37 -24 57 -24 129 0 87 20 148 58 179 50 42 141 47 201 13z"/>
<path d="M9780 5635 c0 -85 -2 -155 -4 -155 -2 0 -19 15 -38 34 -77 77 -216
75 -303 -5 -128 -118 -104 -419 39 -493 86 -43 201 -29 261 34 16 17 32 30 37
30 4 0 8 -18 8 -40 l0 -40 40 0 40 0 0 395 0 395 -40 0 -40 0 0 -155z m-90
-160 c67 -35 103 -145 82 -255 -19 -104 -73 -154 -167 -154 -104 -1 -157 63
-163 194 -4 87 8 143 40 183 44 54 138 68 208 32z"/>
<path d="M6862 5768 c-17 -17 -15 -64 4 -83 26 -26 76 -16 92 18 12 24 11 31
-2 53 -18 27 -72 34 -94 12z"/>
<path d="M2713 5736 c-94 -30 -166 -101 -200 -199 -28 -80 -24 -272 7 -352 31
-81 108 -158 181 -179 111 -33 211 -15 276 50 l43 43 0 -49 0 -50 40 0 40 0 0
200 0 200 -145 0 -145 0 0 -35 0 -34 103 -3 102 -3 -1 -71 c0 -89 -22 -130
-84 -161 -80 -41 -207 -27 -268 30 -62 58 -94 201 -73 328 26 157 94 219 243
219 85 0 148 -26 175 -71 20 -33 33 -36 68 -13 23 15 24 18 10 44 -22 43 -80
88 -137 105 -62 18 -177 19 -235 1z"/>
<path d="M440 5370 l0 -370 220 0 220 0 0 35 0 35 -177 2 -178 3 -3 333 -2
332 -40 0 -40 0 0 -370z"/>
<path d="M6090 5369 l0 -371 178 4 c169 4 180 5 240 32 70 32 123 85 156 155
18 40 21 64 21 181 0 120 -3 141 -24 187 -34 77 -103 137 -186 162 -56 18 -93
21 -226 21 l-159 0 0 -371z m334 286 c76 -20 106 -42 141 -106 24 -45 29 -67
33 -149 6 -128 -13 -198 -71 -256 -52 -51 -89 -63 -234 -71 l-113 -6 0 301 0
302 93 0 c51 0 119 -7 151 -15z"/>
<path d="M1120 5561 c-42 -13 -84 -38 -109 -65 -23 -24 -23 -26 -7 -51 21 -32
28 -32 68 5 53 49 129 63 193 36 37 -16 52 -48 41 -89 -7 -29 -55 -51 -155
-72 -128 -25 -181 -75 -181 -169 0 -70 26 -115 80 -143 81 -42 205 -20 246 42
l17 27 15 -29 c21 -42 41 -53 95 -53 l48 0 -3 33 c-2 25 -7 31 -23 30 -47 -6
-50 4 -55 215 -6 225 -10 239 -83 273 -44 19 -139 24 -187 10z m190 -327 c0
-114 -51 -174 -148 -174 -73 0 -107 31 -107 95 0 39 5 51 28 70 15 13 44 27
65 30 20 4 62 14 92 24 30 10 58 19 63 20 4 0 7 -29 7 -65z"/>
<path d="M3847 5556 c-94 -35 -152 -119 -163 -237 -13 -131 34 -243 123 -296
43 -25 58 -28 133 -28 68 0 93 5 127 22 87 47 133 138 133 263 0 126 -47 217
-133 262 -53 27 -166 34 -220 14z m187 -84 c51 -29 76 -92 76 -192 0 -148 -54
-216 -171 -214 -109 2 -160 60 -167 192 -9 163 60 250 187 237 24 -3 58 -13
75 -23z"/>
<path d="M5354 5552 c-22 -11 -53 -35 -67 -53 l-27 -34 0 48 0 47 -40 0 -40 0
0 -280 0 -280 39 0 39 0 4 188 c3 165 5 192 24 227 44 87 176 113 236 46 l28
-31 0 -215 0 -215 45 0 45 0 0 184 c0 254 -12 307 -82 359 -39 29 -150 34
-204 9z"/>
<path d="M7313 5549 c-23 -11 -49 -31 -58 -45 -23 -35 -35 -30 -35 16 l0 40
-40 0 -40 0 0 -280 0 -280 45 0 45 0 0 178 c0 97 5 194 10 214 23 82 105 125
185 97 58 -20 64 -45 64 -286 l1 -203 39 0 39 0 4 193 c3 170 5 196 23 226 39
66 114 96 175 71 55 -23 60 -46 60 -280 l0 -210 40 0 40 0 0 228 c0 249 -5
272 -63 316 -64 48 -203 26 -253 -40 -15 -19 -29 -34 -33 -34 -3 0 -14 14 -23
30 -39 68 -141 91 -225 49z"/>
<path d="M8227 5556 c-94 -35 -152 -119 -163 -237 -13 -131 34 -243 123 -296
43 -25 58 -28 133 -28 68 0 93 5 127 22 87 47 133 138 133 263 0 126 -47 217
-133 262 -53 27 -166 34 -220 14z m187 -84 c51 -29 76 -92 76 -192 0 -148 -54
-216 -171 -214 -109 2 -160 60 -167 192 -9 163 60 250 187 237 24 -3 58 -13
75 -23z"/>
<path d="M8934 5559 c-18 -5 -48 -27 -68 -49 -20 -22 -38 -40 -41 -40 -3 0 -5
20 -5 45 l0 45 -40 0 -40 0 0 -280 0 -280 45 0 45 0 0 185 c0 205 6 233 59
277 60 51 172 46 209 -10 14 -22 17 -58 20 -239 l3 -213 40 0 40 0 -3 228 c-3
206 -5 230 -23 262 -39 66 -145 97 -241 69z"/>
<path d="M10129 5560 c-70 -21 -109 -71 -109 -140 0 -88 44 -128 181 -165 125
-33 159 -70 128 -139 -15 -32 -62 -51 -125 -50 -58 2 -103 22 -133 60 l-21 27
-25 -23 c-33 -31 -32 -41 7 -79 87 -85 295 -78 361 11 21 28 33 102 23 142 -3
13 -18 38 -32 55 -25 30 -66 46 -202 81 -56 14 -82 41 -82 83 0 50 28 70 103
75 56 3 66 1 107 -27 l45 -30 25 25 25 25 -32 29 c-18 16 -49 34 -70 39 -43
12 -136 13 -174 1z"/>
<path d="M3280 5280 l0 -280 45 0 45 0 0 173 c0 94 5 190 11 211 21 77 99 122
169 98 26 -9 31 -8 41 9 5 11 9 30 7 42 -3 20 -10 22 -65 25 -73 3 -116 -15
-141 -59 -24 -40 -32 -36 -32 16 l0 45 -40 0 -40 0 0 -280z"/>
<path d="M4304 5538 c3 -13 34 -139 68 -280 l63 -258 52 0 52 0 14 48 c8 26
36 122 62 215 26 92 51 167 54 167 6 0 75 -224 123 -397 9 -32 10 -33 63 -33
30 0 55 2 55 5 0 3 29 126 65 274 36 148 65 272 65 275 0 3 -17 6 -38 6 l-39
0 -42 -192 c-55 -251 -61 -272 -70 -262 -5 5 -37 109 -72 232 l-64 223 -45 -3
-44 -3 -63 -224 c-60 -213 -69 -240 -76 -230 -2 2 -23 90 -46 194 -66 293 -55
265 -103 265 -37 0 -40 -2 -34 -22z"/>
<path d="M6860 5280 l0 -280 45 0 45 0 0 280 0 280 -45 0 -45 0 0 -280z"/>
<path d="M5657 4334 c-4 -4 -7 -75 -7 -158 l0 -150 -32 32 c-121 116 -325 62
-372 -99 -20 -67 -20 -190 -1 -257 48 -161 237 -215 365 -105 l40 35 0 -41 0
-41 45 0 45 0 -2 393 -3 392 -35 3 c-20 2 -39 0 -43 -4z m-127 -294 c43 -12
93 -62 109 -109 6 -19 11 -64 11 -101 0 -83 -14 -125 -53 -168 -80 -84 -231
-53 -268 56 -16 47 -17 176 -1 223 28 81 114 124 202 99z"/>
<path d="M8847 4334 c-4 -4 -7 -75 -7 -158 l0 -150 -32 32 c-121 116 -325 62
-372 -99 -20 -67 -20 -190 -1 -257 48 -161 237 -215 365 -105 l40 35 0 -41 0
-41 45 0 45 0 -2 393 -3 392 -35 3 c-20 2 -39 0 -43 -4z m-127 -294 c43 -12
93 -62 109 -109 6 -19 11 -64 11 -101 0 -83 -14 -125 -53 -168 -80 -84 -231
-53 -268 56 -16 47 -17 176 -1 223 28 81 114 124 202 99z"/>
<path d="M1350 4311 c-24 -46 2 -91 53 -91 27 0 57 32 57 61 0 44 -89 68 -110
30z"/>
<path d="M5930 4315 c-18 -22 -15 -66 6 -82 24 -18 59 -16 78 3 19 18 21 65 4
82 -17 17 -73 15 -88 -3z"/>
<path d="M2420 3920 l0 -370 45 0 45 0 0 165 0 165 93 0 c146 0 154 -9 224
-240 l28 -90 42 0 c29 0 43 4 43 13 0 16 -73 236 -90 268 -7 13 -26 36 -43 50
l-31 27 40 20 c48 25 78 57 93 101 32 96 -13 201 -104 242 -34 16 -67 19 -212
19 l-173 0 0 -370z m334 286 c61 -25 87 -89 66 -165 -18 -67 -50 -81 -192 -81
l-118 0 0 130 0 130 105 0 c68 0 118 -5 139 -14z"/>
<path d="M3110 3920 l0 -370 235 0 235 0 0 35 0 35 -190 0 -190 0 0 140 0 140
160 0 160 0 0 35 0 35 -160 0 -160 0 0 125 0 125 185 0 185 0 0 35 0 35 -230
0 -230 0 0 -370z"/>
<path d="M3786 3928 c-69 -200 -126 -366 -126 -370 0 -5 19 -8 43 -8 l42 0 35
100 34 100 160 -2 159 -3 32 -95 32 -95 48 -3 c36 -2 46 0 43 10 -2 7 -60 174
-129 371 l-124 357 -61 0 -61 0 -127 -362z m256 92 c32 -96 58 -178 58 -182 0
-5 -58 -8 -129 -8 l-129 0 61 185 c34 102 66 184 71 182 5 -2 36 -82 68 -177z"/>
<path d="M4430 3920 l0 -370 225 0 225 0 0 35 0 35 -180 0 -180 0 0 335 0 335
-45 0 -45 0 0 -370z"/>
<path d="M1709 4110 c-70 -21 -109 -71 -109 -140 0 -88 44 -128 181 -165 125
-33 159 -70 128 -139 -15 -32 -62 -51 -125 -50 -58 2 -103 22 -133 60 l-21 27
-25 -23 c-33 -31 -32 -41 7 -79 87 -85 295 -78 361 11 21 28 33 102 23 142 -3
13 -18 38 -32 55 -25 30 -66 46 -202 81 -56 14 -82 41 -82 83 0 50 28 70 103
75 56 3 66 1 107 -27 l45 -30 25 25 25 25 -32 29 c-18 16 -49 34 -70 39 -43
12 -136 13 -174 1z"/>
<path d="M6378 4100 c-20 -11 -45 -31 -56 -45 -27 -34 -32 -32 -32 15 l0 40
-40 0 -40 0 0 -280 0 -280 39 0 39 0 4 188 c3 163 6 192 23 226 30 59 66 81
132 81 48 0 58 -4 79 -28 24 -28 24 -30 24 -248 l0 -219 45 0 45 0 0 188 c0
175 2 191 23 232 28 56 76 83 136 77 52 -6 79 -30 91 -83 5 -21 10 -123 10
-226 l0 -188 40 0 40 0 0 208 c0 118 -5 224 -11 247 -20 74 -79 115 -164 115
-60 0 -103 -19 -142 -64 -18 -20 -34 -36 -37 -36 -2 0 -13 16 -25 35 -37 64
-146 85 -223 45z"/>
<path d="M7310 4111 c-75 -24 -125 -69 -157 -140 -23 -51 -23 -231 0 -282 24
-53 64 -97 111 -122 33 -17 58 -22 127 -22 78 0 90 3 135 30 63 39 102 103
117 189 23 135 -23 262 -116 320 -39 24 -60 30 -120 32 -39 2 -83 0 -97 -5z
m175 -91 c53 -33 70 -80 70 -190 0 -72 -4 -104 -19 -132 -26 -54 -78 -83 -146
-83 -72 0 -118 27 -147 85 -44 85 -26 262 30 309 53 43 151 49 212 11z"/>
<path d="M7984 4102 c-22 -11 -53 -35 -67 -53 l-27 -34 0 48 0 47 -40 0 -40 0
0 -280 0 -280 39 0 39 0 4 188 c3 165 5 192 24 227 44 87 176 113 236 46 l28
-31 0 -215 0 -215 45 0 45 0 0 184 c0 254 -12 307 -82 359 -39 29 -150 34
-204 9z"/>
<path d="M9187 4106 c-49 -18 -76 -42 -93 -83 -19 -44 -18 -69 6 -118 23 -48
68 -76 150 -95 123 -28 150 -48 150 -114 0 -94 -158 -113 -249 -31 l-38 34
-28 -29 -28 -29 35 -35 c39 -39 116 -66 187 -66 165 0 252 120 185 252 -18 36
-57 55 -168 84 -120 32 -153 66 -125 127 28 61 163 65 225 6 20 -19 21 -19 44
6 30 32 21 49 -36 79 -49 26 -163 32 -217 12z"/>
<path d="M1360 3830 l0 -280 40 0 40 0 0 280 0 280 -40 0 -40 0 0 -280z"/>
<path d="M5930 3830 l0 -280 45 0 45 0 0 280 0 280 -45 0 -45 0 0 -280z"/>
</g>
</svg>
